<svg width="213" height="212" viewBox="0 0 213 212" fill="none" xmlns="http://www.w3.org/2000/svg">
<path d="M49.5966 135.915C47.3483 133.402 46.0235 130.198 45.8411 126.831V84.8435C46.023 81.4761 47.3478 78.2715 49.5966 75.7592L52.5667 72.7881C53.5627 71.7898 54.122 70.4371 54.122 69.0267C54.122 67.6163 53.5627 66.2635 52.5667 65.2653L21.0626 33.7455C20.0636 32.7502 18.7111 32.1914 17.3011 32.1914C15.8911 32.1914 14.5386 32.7502 13.5396 33.7455L1.54756 45.742C0.556183 46.7427 0 48.0945 0 49.5034C0 50.9123 0.556183 52.2641 1.54756 53.2648L24.0326 75.7582C26.2854 78.2684 27.612 81.474 27.7921 84.8426V126.83C27.6125 130.197 26.2857 133.4 24.0326 135.908L1.54756 158.41C0.556183 159.411 0 160.763 0 162.171C0 163.58 0.556183 164.932 1.54756 165.933L13.5396 177.929C14.5387 178.924 15.8912 179.483 17.3011 179.483C18.711 179.483 20.0635 178.924 21.0626 177.929L52.5667 146.407C53.5626 145.408 54.1219 144.056 54.1219 142.646C54.1219 141.235 53.5626 139.883 52.5667 138.885L49.5966 135.915Z" fill="#583BD1"/>
<path d="M136.176 162.383C133.665 164.632 130.463 165.959 127.097 166.145H85.1371C81.7689 165.959 78.5642 164.633 76.0501 162.383L73.0871 159.404C72.0845 158.412 70.7317 157.856 69.3221 157.856C67.9124 157.856 66.5596 158.412 65.5571 159.404L34.057 190.924C33.0625 191.925 32.5042 193.279 32.5042 194.69C32.5042 196.101 33.0625 197.455 34.057 198.455L46.049 210.452C47.0503 211.444 48.4024 212 49.8115 212C51.2206 212 52.5727 211.444 53.574 210.452L76.0541 187.947C78.5675 185.699 81.7712 184.373 85.138 184.187H127.11C130.476 184.372 133.678 185.698 136.189 187.947L158.679 210.452C159.68 211.444 161.031 212 162.44 212C163.848 212 165.2 211.444 166.2 210.452L178.192 198.455C179.187 197.455 179.745 196.101 179.745 194.69C179.745 193.279 179.187 191.925 178.192 190.924L146.669 159.402C145.669 158.41 144.318 157.854 142.91 157.854C141.502 157.854 140.15 158.41 139.15 159.402L136.176 162.383Z" fill="#583BD1"/>
<path d="M163.39 76.0831C165.644 78.5981 166.973 81.8075 167.156 85.1805V127.152C166.972 130.523 165.643 133.73 163.39 136.242L160.419 139.22C159.426 140.22 158.869 141.572 158.869 142.982C158.869 144.391 159.426 145.743 160.419 146.743L191.932 178.259C192.931 179.254 194.284 179.812 195.693 179.812C197.103 179.812 198.455 179.254 199.454 178.259L211.446 166.256C212.441 165.257 213 163.904 213 162.494C213 161.084 212.441 159.731 211.446 158.732L188.966 136.238C186.712 133.726 185.382 130.519 185.198 127.148L185.204 85.1765C185.385 81.8037 186.712 78.5942 188.966 76.0791L211.446 53.5857C212.441 52.5886 213 51.2372 213 49.8283C213 48.4194 212.441 47.068 211.446 46.0709L199.454 34.0674C198.96 33.5733 198.374 33.1813 197.729 32.9139C197.083 32.6465 196.392 32.5088 195.693 32.5088C194.995 32.5088 194.303 32.6465 193.658 32.9139C193.012 33.1813 192.426 33.5733 191.932 34.0674L160.419 65.5822C159.426 66.5821 158.869 67.9345 158.869 69.3441C158.869 70.7537 159.426 72.106 160.419 73.106L163.39 76.0831Z" fill="#583BD1"/>
<path d="M76.8096 49.6159C79.3198 47.3637 82.5236 46.0365 85.8906 45.854H127.854C131.22 46.0397 134.422 47.3665 136.934 49.6159L139.911 52.593C140.404 53.087 140.99 53.4788 141.635 53.7462C142.28 54.0135 142.971 54.1512 143.669 54.1512C144.367 54.1512 145.059 54.0135 145.703 53.7462C146.348 53.4788 146.934 53.087 147.428 52.593L178.936 21.0712C179.93 20.0705 180.488 18.7168 180.488 17.3058C180.488 15.8949 179.93 14.5412 178.936 13.5404L166.944 1.55794C165.946 0.560361 164.593 0 163.182 0C161.771 0 160.418 0.560361 159.42 1.55794L136.935 24.0514C134.423 26.3007 131.221 27.6275 127.855 27.8132H85.8906C82.5236 27.6307 79.3198 26.3035 76.8096 24.0514L54.3245 1.55794C53.3233 0.566433 51.9714 0.0102509 50.5625 0.0102509C49.1537 0.0102509 47.8018 0.566433 46.8005 1.55794L34.8085 13.5544C33.8143 14.555 33.2562 15.9085 33.2562 17.3193C33.2562 18.7301 33.8143 20.0836 34.8085 21.0842L66.3096 52.592C67.3076 53.5896 68.6607 54.1499 70.0716 54.1499C71.4824 54.1499 72.8356 53.5896 73.8336 52.592L76.8096 49.6159Z" fill="#583BD1"/>
</svg>
